# xmcd CD database file
#
# Track frame offsets:
#	150
#	19037
#	41747
#
# Disc length: 805 seconds
#
# Revision: 0
# Processed by: cddbd v1.5.1PL0 Copyright (c) Steve Scherf et al.
# Submitted via: CDex 1.51
#
DISCID=1c032303
DTITLE=Be-B - Fly for Me
DYEAR=1995
DGENRE=JPop
TTITLE0=Fly for Me
TTITLE1=NEXT-Atarashii Kaze Ni Naru Hi-
TTITLE2=Fly for Me(karaoke)
EXTD=YEAR: 1995
EXTT0=
EXTT1=
EXTT2=
PLAYORDER=
